<?xml version="1.0" encoding="us-ascii" standalone="no"?><svg xmlns="http://www.w3.org/2000/svg" xmlns:xlink="http://www.w3.org/1999/xlink" contentStyleType="text/css" height="119px" preserveAspectRatio="none" style="width:591px;height:119px;background:#FFFFFF;" version="1.1" viewBox="0 0 591 119" width="591px" zoomAndPan="magnify"><defs/><g><ellipse cx="16" cy="60" fill="#181818" rx="10" ry="10" style="stroke:none;stroke-width:1.0;"/><path d="M73.5,7 L565,7 A12.5,12.5 0 0 1 577.5,19.5 L577.5,36.0679 L61,36.0679 L61,19.5 A12.5,12.5 0 0 1 73.5,7 " fill="#F1F1F1" style="stroke:#F1F1F1;stroke-width:1.0;"/><rect fill="none" height="106.4799" rx="12.5" ry="12.5" style="stroke:#181818;stroke-width:0.5;" width="516.5" x="61" y="7"/><line style="stroke:#181818;stroke-width:0.5;" x1="61" x2="577.5" y1="36.0679" y2="36.0679"/><text fill="#000000" font-family="sans-serif" font-size="14" lengthAdjust="spacing" textLength="20" x="309.25" y="26.9659">On</text><ellipse cx="82" cy="75.5679" fill="#181818" rx="10" ry="10" style="stroke:none;stroke-width:1.0;"/><g id="On.AssayNotStarted"><rect fill="#F1F1F1" height="50" rx="12.5" ry="12.5" style="stroke:#181818;stroke-width:0.5;" width="131" x="110.5" y="50.5679"/><line style="stroke:#181818;stroke-width:0.5;" x1="110.5" x2="241.5" y1="79.6358" y2="79.6358"/><text fill="#000000" font-family="sans-serif" font-size="14" lengthAdjust="spacing" textLength="111" x="120.5" y="70.5339">AssayNotStarted</text></g><g id="On.AssayStarted"><rect fill="#F1F1F1" height="55.412" rx="12.5" ry="12.5" style="stroke:#181818;stroke-width:0.5;" width="123" x="298.5" y="48.0679"/><line style="stroke:#181818;stroke-width:0.5;" x1="298.5" x2="421.5" y1="77.1358" y2="77.1358"/><text fill="#000000" font-family="sans-serif" font-size="14" lengthAdjust="spacing" textLength="87" x="316.5" y="68.0339">AssayStarted</text><text fill="#000000" font-family="sans-serif" font-size="12" lengthAdjust="spacing" textLength="103" x="303.5" y="94.9639">entry / setupAssay</text></g><g id="On.Homing0"><rect fill="#F1F1F1" height="50" rx="12.5" ry="12.5" style="stroke:#181818;stroke-width:0.5;" width="81" x="487.5" y="50.5679"/><line style="stroke:#181818;stroke-width:0.5;" x1="487.5" x2="568.5" y1="79.6358" y2="79.6358"/><text fill="#000000" font-family="sans-serif" font-size="14" lengthAdjust="spacing" textLength="61" x="497.5" y="70.5339">Homing0</text></g><!--link *start*On to AssayNotStarted--><g id="link_*start*On_AssayNotStarted"><path d="M92.28,75.5679 C96.12,75.5679 99.96,75.5679 103.8,75.5679 " fill="none" id="*start*On-to-AssayNotStarted" style="stroke:#181818;stroke-width:1.0;"/><polygon fill="#181818" points="108.75,75.5679,99.75,71.5679,103.75,75.5679,99.75,79.5679,108.75,75.5679" style="stroke:#181818;stroke-width:1.0;"/></g><!--link AssayNotStarted to AssayStarted--><g id="link_AssayNotStarted_AssayStarted"><path d="M241.91,75.5679 C258.11,75.5679 275.49,75.5679 291.8,75.5679 " fill="none" id="AssayNotStarted-to-AssayStarted" style="stroke:#181818;stroke-width:1.0;"/><polygon fill="#181818" points="296.72,75.5679,287.72,71.5679,291.72,75.5679,287.72,79.5679,296.72,75.5679" style="stroke:#181818;stroke-width:1.0;"/><text fill="#000000" font-family="sans-serif" font-size="13" lengthAdjust="spacing" textLength="37" x="251.5" y="68.4649">START</text></g><!--link AssayStarted to Homing0--><g id="link_AssayStarted_Homing0"><path d="M421.6,75.5679 C441.21,75.5679 462.57,75.5679 480.97,75.5679 " fill="none" id="AssayStarted-to-Homing0" style="stroke:#181818;stroke-width:1.0;"/><polygon fill="#181818" points="485.58,75.5679,476.58,71.5679,480.58,75.5679,476.58,79.5679,485.58,75.5679" style="stroke:#181818;stroke-width:1.0;"/><text fill="#000000" font-family="sans-serif" font-size="13" lengthAdjust="spacing" textLength="46" x="431.5" y="68.4649">HOME0</text></g><!--link *start* to On--><g id="link_*start*_On"><path d="M26.36,60 C35.64,60 44.93,60 54.22,60 " fill="none" id="*start*-to-On" style="stroke:#181818;stroke-width:1.0;"/><polygon fill="#181818" points="59.14,60,50.14,56,54.14,60,50.14,64,59.14,60" style="stroke:#181818;stroke-width:1.0;"/></g><!--SRC=[YzQALT2rK_3Fu-8gBaaiIGMo5Agv51IY8UAEnSM9bNxv9S4bYKKbgIb02JGHk28OtqeXECGnA0Ic4Y6ScbTILAcWhr2SMb9Q09P3LmCqoYC_DpCltG2etCFVrzM0gnO0]--></g></svg>